<svg width="384" height="68" viewBox="0 0 384 68" fill="none" xmlns="http://www.w3.org/2000/svg">
<path d="M0 67.531L30.2596 0.468965H53.4711L83.7307 67.531H67.3793L60.9891 53.3683H22.7417L16.3515 67.531H0ZM28.1922 41.1752H55.5386L42.4762 12.1931H41.2545L28.1922 41.1752Z" fill="#D9D9D9"/>
<path d="M85.6227 67.531L110.808 34.0469L85.6227 0.468965H103.948L124.152 27.9503H132.798L153.002 0.468965H171.327L146.142 34.0469L171.327 67.531H152.908L132.798 40.1435H124.152L104.042 67.531H85.6227Z" fill="#D9D9D9"/>
<path d="M178.811 67.531V0.468965H193.847V67.531H178.811Z" fill="#D9D9D9"/>
<path d="M240.909 68C228.943 68 219.671 65.1549 213.093 59.4648C206.515 53.7122 203.226 45.2083 203.226 33.9531C203.226 22.7605 206.515 14.3191 213.093 8.62897C219.671 2.87632 229.163 0 241.567 0H258.482C270.887 0 280.378 2.87632 286.957 8.62897C293.535 14.3191 296.824 22.7605 296.824 33.9531C296.824 45.2083 293.535 53.7122 286.957 59.4648C280.378 65.1549 271.044 68 258.952 68H240.909ZM242.601 12.1931C235.647 12.1931 230.228 13.4437 226.343 15.9448C222.459 18.446 220.016 22.4166 219.013 27.8566H281.036C280.034 22.4166 277.591 18.446 273.706 15.9448C269.822 13.4437 264.403 12.1931 257.449 12.1931H242.601ZM242.883 55.8069H257.449C264.466 55.8069 269.885 54.5563 273.706 52.0552C277.591 49.554 280.034 45.5522 281.036 40.0497H219.013C220.016 45.5522 222.459 49.554 226.343 52.0552C230.228 54.5563 235.741 55.8069 242.883 55.8069Z" fill="#7300FF"/>
<path d="M306.19 67.531V0.468965H321.413L368.964 48.6786V0.468965H384V67.531H368.776L321.225 19.2276V67.531H306.19Z" fill="#D9D9D9"/>
</svg>
